<svg t="1636175046707" class="icon" viewBox="0 0 1024 1024" version="1.1" xmlns="http://www.w3.org/2000/svg" p-id="1260" width="200" height="200"><path d="M693.333333 298.666667a53.393333 53.393333 0 0 1-53.333333-53.333334V42.666667H181.333333a53.393333 53.393333 0 0 0-53.333333 53.333333v832a53.393333 53.393333 0 0 0 53.333333 53.333333h661.333334a53.393333 53.393333 0 0 0 53.333333-53.333333V298.666667z m-416-42.666667h213.333334a21.333333 21.333333 0 0 1 0 42.666667H277.333333a21.333333 21.333333 0 0 1 0-42.666667z m-21.333333 192a21.333333 21.333333 0 0 1 21.333333-21.333333h128a21.333333 21.333333 0 0 1 0 42.666666H277.333333a21.333333 21.333333 0 0 1-21.333333-21.333333z m430.326667 72.833333l-269.713334 269.72-114.14 16.306667 16.306667-114.14 269.72-269.713333a42.713333 42.713333 0 0 1 60.333333 0l37.493334 37.493333a42.713333 42.713333 0 0 1 0 60.333333zM682.666667 245.333333V55.42c1.066667 0.913333 2.12 1.86 3.126666 2.866667l194.586667 194.586666c1.006667 1.006667 1.953333 2.06 2.866667 3.126667H693.333333a10.666667 10.666667 0 0 1-10.666666-10.666667z" fill="#5C5C66" p-id="1261"></path></svg>