<svg t="1636353042265" class="icon" viewBox="0 0 1024 1024" version="1.1" xmlns="http://www.w3.org/2000/svg" p-id="1691" width="200" height="200"><path d="M825.768 376.016 825.768 376.016 475.889 731.658l0 0c-8.265 8.395-19.68 13.595-32.287 13.595-12.607 0-24.022-5.2-32.29-13.595l0 0L213.584 530.629l0 0c-8.26-8.355-13.372-19.96-13.372-32.775 0-25.63 20.442-46.372 45.617-46.372 12.607 0 24.027 5.195 32.292 13.592l0 0 165.48 168.17 317.637-322.864 0 0c8.265-8.355 19.68-13.552 32.285-13.552 25.17 0 45.625 20.78 45.625 46.367C839.148 356.012 834.033 367.619 825.768 376.016L825.768 376.016 825.768 376.016z" p-id="1692"></path></svg>