<!-- <svg t="1635861391186" class="icon" viewBox="0 0 1024 1024" version="1.1" xmlns="http://www.w3.org/2000/svg" p-id="1958" width="200" height="200"><path d="M1024.25175 0l-209.92 23.04L883.45175 92.16 655.61175 370.688 419.06775 152.064c-15.872-14.848-40.96-14.848-57.344-0.512L14.07575 465.408C-3.33225 481.28-4.86825 508.416 11.00375 525.824c8.192 9.216 19.968 13.824 31.744 13.824 10.24 0 20.48-3.584 28.672-10.752l318.464-287.744 241.152 222.72c8.704 8.192 20.48 11.776 31.744 11.264 11.776-1.024 22.528-6.656 30.208-15.36l250.88-306.688 57.344 57.344L1024.25175 0z m0 0M133.37175 1024H30.97175c-16.896 0-30.72-13.824-30.72-30.72v-348.16c0-16.896 13.824-30.72 30.72-30.72h102.4c16.896 0 30.72 13.824 30.72 30.72v348.16c0 16.896-13.824 30.72-30.72 30.72z" p-id="1959"></path><path d="M420.09175 1024H317.69175c-16.896 0-30.72-13.824-30.72-30.72V440.32c0-16.896 13.824-30.72 30.72-30.72h102.4c16.896 0 30.72 13.824 30.72 30.72v552.96c0 16.896-13.824 30.72-30.72 30.72zM706.81175 1024h-102.4c-16.896 0-30.72-13.824-30.72-30.72v-399.36c0-16.896 13.824-30.72 30.72-30.72h102.4c16.896 0 30.72 13.824 30.72 30.72v399.36c0 16.896-13.824 30.72-30.72 30.72zM993.53175 1024h-102.4c-16.896 0-30.72-13.824-30.72-30.72V337.92c0-16.896 13.824-30.72 30.72-30.72h102.4c16.896 0 30.72 13.824 30.72 30.72v655.36c0 16.896-13.824 30.72-30.72 30.72z" p-id="1960"></path></svg> -->
<!-- <svg t="1639026910498" class="icon" viewBox="0 0 1024 1024" version="1.1" xmlns="http://www.w3.org/2000/svg" p-id="3394" width="200" height="200"><path d="M194.56 386.048q31.744 0 46.592 19.456t14.848 43.008l0 447.488-192.512 0 0-443.392q0-31.744 19.968-49.152t43.52-17.408l67.584 0zM514.048 134.144q27.648 0 44.032 16.896t16.384 40.448l0 704.512-191.488 0 0-702.464q0-15.36 6.144-26.624t15.36-18.432 20.48-10.752 20.48-3.584l68.608 0zM832.512 577.536q9.216 0 19.968 5.12t20.48 14.336 16.384 20.992 6.656 25.088l0 252.928-191.488 0 0-250.88q0-11.264 4.608-23.552t12.8-22.016 19.456-15.872 24.576-6.144l66.56 0z" p-id="3395"></path></svg> -->
<svg t="1639026960931" class="icon" viewBox="0 0 1024 1024" version="1.1" xmlns="http://www.w3.org/2000/svg" p-id="3551" width="200" height="200"><path d="M691.2 928.2V543.1c0-32.7 26.5-59.3 59.2-59.3h118.5c32.7 0 59.3 26.5 59.3 59.2V928.2h-237z m192.6-385.1c0-8.2-6.6-14.8-14.8-14.8H750.5c-8.2 0-14.8 6.6-14.9 14.7v340.8h148.2V543.1zM395 157.8c-0.1-32.6 26.3-59.2 58.9-59.3h118.8c32.6 0 59.1 26.5 59.1 59.1v770.6H395V157.8z m44.4 725.9h148V157.9c0-8.1-6.5-14.7-14.7-14.8H454.1c-8.1 0.1-14.7 6.7-14.7 14.8v725.8zM98.6 394.9c0-32.7 26.5-59.2 59.2-59.3h118.5c32.7-0.1 59.3 26.4 59.3 59.1v533.5h-237V394.9z m44.5 488.8h148.2V394.9c0-8.2-6.7-14.8-14.8-14.8H158c-8.2 0-14.8 6.6-14.9 14.7v488.9z" p-id="3552"></path></svg>