<svg t="1639303711494" class="icon" viewBox="0 0 1024 1024" version="1.1" xmlns="http://www.w3.org/2000/svg" p-id="2569" width="200" height="200"><path d="M512.002 63.84C264.88 63.84 63.84 264.88 63.84 512.002c0 247.143 201.04 448.157 448.162 448.157 247.13 0 448.157-201.026 448.157-448.157C960.16 264.88 759.133 63.84 512.002 63.84z m0 843.592c-218.047 0-395.435-177.388-395.435-395.429 0-218.047 177.388-395.435 395.435-395.435 218.042 0 395.43 177.4 395.43 395.435 0 218.041-177.388 395.43-395.43 395.43z m0-474.516c-14.553 0-26.358 11.805-26.358 26.353v303.167c0 14.578 11.805 26.358 26.358 26.358 14.547 0 26.37-11.78 26.37-26.358V459.269c0-14.548-11.822-26.353-26.37-26.353z m-52.733-131.818c0-29.115 23.614-52.73 52.733-52.73 29.127 0 52.728 23.615 52.728 52.73 0 29.118-23.6 52.728-52.728 52.728-29.12 0-52.733-23.597-52.733-52.728z m0 0" p-id="2570"></path></svg>